# xmcd
#
# Track frame offsets:
#	150
#	16591
#	35974
#	54001
#	66702
#	85697
#	111650
#	133621
#	148505
#	164689
#	181799
#	204259
#
# Disc length: 3060
#
# Revision: 2
# Processed by: cddbd v1.5.1PL0 Copyright (c) Steve Scherf et al.
# Submitted via: EasyCDDAExtractor 5.0.6
# Normalized: r1:DSETVAR1
#
DISCID=a70bf20c
DTITLE=Various Artist - Heaven Right Here
DYEAR=2000
DGENRE=Easy Listening
TTITLE0=Jeb Loy Nichols - Heaven Right Here
TTITLE1=Josh Rouse - Laughter
TTITLE2=Jess Klein - Cloud Song
TTITLE3=Willard Grant Conspiracy - Notes From The Waiting Room
TTITLE4=King Cobb Steelie - Fast Money Blessing
TTITLE5=Tom Tom Club - Happiness Can't Buy Money
TTITLE6=Andrew Bird's Bowl Of Fire - How Discreet
TTITLE7=Chuck E Weiss - Sweetie-O
TTITLE8=Morphine - You Look Like Rain
TTITLE9=Peter Bruntnell - You Won't Find Me
TTITLE10=Catie Curtis - Troubled Mind
TTITLE11=Kelly Joe Phelps - Goodnight Irene
EXTD=
EXTT0=
EXTT1=
EXTT2=
EXTT3=
EXTT4=
EXTT5=
EXTT6=
EXTT7=
EXTT8=
EXTT9=
EXTT10=
EXTT11=
PLAYORDER=
